# xmcd CD database file
#
# Track frame offsets:
#	150
#	17644
#	29699
#	42059
#	55708
#	76318
#	90563
#	107512
#	123313
#	142008
#	162235
#	175884
#	188344
#	202010
#	216669
#	230135
#
# Disc length: 3254 seconds
#
# Revision: 0
# Processed by: cddbd v1.5.1PL0 Copyright (c) Steve Scherf et al.
# Submitted via: CDex 1.50
#
DISCID=d90cb410
DTITLE=Marty Robbins - Griffin's Favorites
DYEAR=1900
DGENRE=Country
TTITLE0=Ghost Riders In The Sky
TTITLE1=When The Works All Done This Fall
TTITLE2=The Wreck Of Old Number 9
TTITLE3=The Hanging Tree
TTITLE4=Ava Maria    Morales
TTITLE5=All Around Cowboy
TTITLE6=Little Box Of Pine     
TTITLE7=Ballad Of The Alamo
TTITLE8=Mister Shorty
TTITLE9=El Paso
TTITLE10=The Masters Call                  ,
TTITLE11=Girl With Gardenias In Her Hair
TTITLE12=Cowboy In The Continental Suit
TTITLE13=Johnny
TTITLE14=Girl From Spanish Town
TTITLE15=Abilene Rose
EXTD=
EXTT0=
EXTT1=
EXTT2=
EXTT3=
EXTT4=
EXTT5=
EXTT6=
EXTT7=
EXTT8=
EXTT9=
EXTT10=
EXTT11=
EXTT12=
EXTT13=
EXTT14=
EXTT15=
PLAYORDER=
